# xmcd
#
# Track frame offsets: 
#        150
#        23280
#        36904
#        58211
#        72226
#        83740
#        107835
#        134707
#        152351
#        173541
#        191093
#
# Disc length: 2772 seconds
#
# Revision: 2
# Processed by: cddbd v1.5.2PL0 Copyright (c) Steve Scherf et al.
# Submitted via: ExactAudioCopyFreeDBPlugin 1.0
#
DISCID=8b0ad20b
DTITLE=Livin' Blues - The Early Blues Sessions
DYEAR=1993
DGENRE=Blues
TTITLE0=One Night Boy
TTITLE1=Rock Me Baby
TTITLE2=Lonesome Road
TTITLE3=Born In Chicago
TTITLE4=Choice
TTITLE5=Selection
TTITLE6=I Don't Know
TTITLE7=Statement
TTITLE8=Polisch Blues
TTITLE9=Going Down Slow
TTITLE10=You Don't Know How Much I Love You
EXTD=ARD Pseudonym Records CDP 1007
EXTT0=1968
EXTT1=1968
EXTT2=1968
EXTT3=1968
EXTT4=1972
EXTT5=1972
EXTT6=1971
EXTT7=1972
EXTT8=1972
EXTT9=1967
EXTT10=1967
PLAYORDER=
